<?xml version="1.0" encoding="UTF-8" standalone="no"?>
<svg width="594px" height="200px" viewBox="0 0 594 200" version="1.1" xmlns="http://www.w3.org/2000/svg" xmlns:xlink="http://www.w3.org/1999/xlink" xmlns:sketch="http://www.bohemiancoding.com/sketch/ns">
    <!-- Generator: Sketch 3.0.4 (8053) - http://www.bohemiancoding.com/sketch -->
    <title>fyber</title>
    <desc>Created with Sketch.</desc>
    <defs></defs>
    <g id="Page-1" stroke="none" stroke-width="1" fill="none" fill-rule="evenodd" sketch:type="MSPage">
        <g id="fyber" sketch:type="MSLayerGroup">
            <path d="M100,0 C73.289,0 48.177,10.402 29.289,29.289 C10.402,48.177 0,73.289 0,100 C0,126.711 10.402,151.823 29.289,170.711 C48.177,189.598 73.289,200 100,200 C126.711,200 151.823,189.598 170.711,170.711 C189.598,151.823 200,126.711 200,100 C200,73.289 189.598,48.177 170.711,29.289 C151.823,10.402 126.711,0 100,0 L100,0 Z M100,24.194 C141.867,24.194 175.806,58.133 175.806,100 C175.806,141.867 141.867,175.806 100,175.806 C58.134,175.806 24.194,141.867 24.194,100 C24.194,58.133 58.134,24.194 100,24.194 L100,24.194 Z" id="Fill-1" fill="#A9BFCC" sketch:type="MSShapeGroup"></path>
            <path d="M134.457,74.001 L134.457,49.638 L86.394,49.638 L61.875,74.302 L61.875,98.664 L86.243,98.664 L86.243,74.001 L134.457,74.001" id="Fill-2" fill="#4B4A45" sketch:type="MSShapeGroup"></path>
            <path d="M61.875,147.389 L86.394,147.389 L86.394,122.997 L134.457,122.997 L134.457,98.664 L86.394,98.664 L61.875,122.997 L61.875,147.389" id="Fill-3" fill="#4B4A45" sketch:type="MSShapeGroup"></path>
            <path d="M291.274,137.389 L291.274,51.529 L343.468,51.529 L343.468,62.545 L303.132,62.545 L303.132,90.156 L339.712,90.156 L339.712,101.299 L303.132,101.299 L303.132,137.389 L291.274,137.389" id="Fill-4" fill="#4B4A45" sketch:type="MSShapeGroup"></path>
            <path d="M360,161.734 L374.534,130.97 L349.46,79.139 L362.55,79.139 L380.714,119.35 L398.15,79.139 L410.385,79.139 L372.474,161.734 L360,161.734" id="Fill-5" fill="#4B4A45" sketch:type="MSShapeGroup"></path>
            <path d="M449.704,87.493 C439.654,87.493 432.381,95.369 432.381,107.969 C432.381,120.556 439.654,128.796 449.704,128.796 C460.118,128.796 466.901,120.556 466.901,107.969 C466.901,95.369 460.243,87.493 449.704,87.493 L449.704,87.493 Z M421.239,137.389 L421.239,49.707 L432.507,49.707 L432.507,87.38 C435.295,82.167 442.066,77.444 451.764,77.444 C469.439,77.444 478.521,91.01 478.521,107.969 C478.521,125.279 468.71,138.971 451.4,138.971 C442.795,138.971 436.137,135.216 432.507,128.909 L432.507,137.389 L421.239,137.389 L421.239,137.389 Z" id="Fill-6" fill="#4B4A45" sketch:type="MSShapeGroup"></path>
            <path d="M534.66,102.266 C534.421,93.912 528.969,87.38 518.668,87.38 C509.109,87.38 503.293,94.766 502.803,102.266 L534.66,102.266 L534.66,102.266 Z M546.166,120.795 C542.888,131.095 533.567,139.21 520,139.21 C504.386,139.21 490.693,127.829 490.693,108.082 C490.693,89.792 503.896,77.318 518.555,77.318 C536.469,77.318 546.531,89.679 546.531,107.843 C546.531,109.3 546.405,110.745 546.279,111.474 L502.439,111.474 C502.69,121.887 510.189,129.161 520,129.161 C529.447,129.161 534.17,123.948 536.356,117.415 L546.166,120.795 L546.166,120.795 Z" id="Fill-7" fill="#4B4A45" sketch:type="MSShapeGroup"></path>
            <path d="M593.336,90.646 C591.64,90.407 589.944,90.282 588.374,90.282 C578.802,90.282 572.383,95.369 572.383,108.208 L572.383,137.389 L561.002,137.389 L561.002,79.139 L572.144,79.139 L572.144,89.314 C576.39,80.358 583.651,78.172 589.58,78.172 C591.163,78.172 592.733,78.411 593.336,78.536 L593.336,90.646" id="Fill-8" fill="#4B4A45" sketch:type="MSShapeGroup"></path>
        </g>
    </g>
</svg>