<?xml version="1.0" encoding="UTF-8"?>
<!DOCTYPE svg PUBLIC "-//W3C//DTD SVG 1.1//EN" "http://www.w3.org/Graphics/SVG/1.1/DTD/svg11.dtd">
<svg version="1.1" xmlns="http://www.w3.org/2000/svg" xmlns:xlink="http://www.w3.org/1999/xlink" x="0px" y="0px" width="395.276" height="441.89" viewBox="0, 0, 395.276, 441.89">
  <g id="Layer 1">
    <g>
      <path d="M166.922,239.308 C145.042,239.685 138.028,258.583 138.251,270.996 C139.006,312.87 198.233,345.69 201.817,346.068 C205.401,346.445 265.178,314.325 265.382,269.865 C265.464,252.144 252.933,238.931 236.335,238.931 C211.568,238.931 201.53,262.026 201.53,262.026 C201.53,262.026 190.311,240.44 166.922,239.308 z" fill="#D30916"/>
      <path d="M166.922,239.308 C145.042,239.685 138.028,258.583 138.251,270.996 C139.006,312.87 198.233,345.69 201.817,346.068 C205.401,346.445 265.178,314.325 265.382,269.865 C265.464,252.144 252.933,238.931 236.335,238.931 C211.568,238.931 201.53,262.026 201.53,262.026 C201.53,262.026 190.311,240.44 166.922,239.308 z" fill-opacity="0" stroke="#000000" stroke-width="9" stroke-linecap="square" stroke-linejoin="round"/>
    </g>
    <path d="M201.817,258.547 L201.836,198.435" fill-opacity="0" stroke="#000000" stroke-width="9"/>
    <path d="M202.078,198.435 C195.601,198.435 190.35,193.184 190.35,186.706 C190.35,180.229 195.601,174.978 202.078,174.978 C208.555,174.978 213.806,180.229 213.806,186.706 C213.806,193.184 208.555,198.435 202.078,198.435 z" fill-opacity="0" stroke="#000000" stroke-width="8"/>
    <path d="M170.959,219.489 L233.259,219.934 L233.297,213.346 C233.297,213.346 218.507,209.03 201.437,209.087 C184.367,209.143 170.859,212.745 170.859,212.745 L170.959,219.489 z" fill="#000000"/>
    <path d="M164.8,288.606 L185.6,288.606 L176.8,274.057" fill="#FFFFFF"/>
    <path d="M189.4,288.606 L198.619,274.057 L179.924,274.057 L189.4,288.606 z" fill="#FFFFFF"/>
    <path d="M218.8,288.606 L239.8,288.606 L228.8,274.057" fill="#FFFFFF"/>
    <path d="M192.2,288.606 L211.082,288.606 L201.817,274.057" fill="#FFFFFF"/>
    <path d="M214.294,288.606 L224.427,274.057 L205.2,274.057 L214.294,288.606 z" fill="#FFFFFF"/>
    <path d="M198.619,328.089 L186.619,292.8 L164.8,292.481 L198.619,328.089 z" fill="#FFFFFF"/>
    <path d="M201.823,328.408 L213.806,292.481 L189.4,292.481 L201.823,328.408 z" fill="#FFFFFF"/>
    <path d="M205.2,328.089 L239.8,292.481 L217,292.481 L205.2,328.089 z" fill="#FFFFFF"/>
  </g>
  <defs/>
</svg>
