<?xml version="1.0" encoding="utf-8"?>
<!-- Generator: Adobe Illustrator 18.1.0, SVG Export Plug-In . SVG Version: 6.00 Build 0)  -->
<!DOCTYPE svg PUBLIC "-//W3C//DTD SVG 1.1//EN" "http://www.w3.org/Graphics/SVG/1.1/DTD/svg11.dtd">
<svg version="1.1" id="Layer_1" xmlns="http://www.w3.org/2000/svg" xmlns:xlink="http://www.w3.org/1999/xlink" x="0px" y="0px"
	 viewBox="0 0 603.8 104.9" enable-background="new 0 0 603.8 104.9" xml:space="preserve">
<g>
	<polygon fill="#4988A2" points="481.8,16.9 481.8,80.7 561.3,80.7 	"/>
	<polygon fill="#7A4198" points="538.3,80.7 602.1,7.4 602.1,80.7 	"/>
	<polygon fill="#478B60" points="481.9,80.7 513.5,1.1 561,80.7 	"/>
	<polygon fill="#135F66" points="488.3,80.7 515.3,43.9 547.7,69.9 538.3,80.7 	"/>
	<polygon fill="#2B7B82" points="488.3,80.7 481.9,80.7 501.1,32.4 515.3,43.9 	"/>
	<polygon fill="#194A7F" points="547.7,69.9 538.3,80.7 561.1,80.7 	"/>
	<polyline fill="#5E2B7C" points="551.7,65.3 547.7,69.9 561.1,80.7 551.7,65.3 	"/>
	<polygon fill="#7A2980" points="602.1,80.7 561.1,80.7 551.7,65.3 575.6,37.8 	"/>
	<polygon fill="#456630" points="515.3,43.9 528.6,26.4 551.7,65.3 547.7,69.9 	"/>
	<polygon fill="#E77A45" points="528.6,26.4 535.4,16.9 551.3,39.2 566.9,23.9 575.6,37.8 551.7,65.3 	"/>
</g>
<g>
	<path fill="#6F8087" d="M61.7,80.7H49.5l-6.9-22.6H19.1l-6.6,22.6H0.5L24,4h14.2L61.7,80.7z M40.6,49.2l-6-20
		c-1.4-5-2.7-10.4-3.8-15.1h-0.2c-1.1,4.7-2.3,10.3-3.6,15l-6.1,20.1H40.6z"/>
	<path fill="#6F8087" d="M82.3,33.9c3.8-6.2,9.8-9.6,17.5-9.6c12.4,0,21.8,11,21.8,28.2c0,20.3-11.7,29.4-23.4,29.4
		c-6.6,0-12-3.1-14.7-7.6h-0.2v28.9H71.7V43.3c0-7.2-0.2-12.9-0.4-17.8h10.2l0.6,8.4H82.3z M83.3,58.4c0,9.9,6.8,14.1,12.5,14.1
		c9,0,13.9-8.3,13.9-19.8c0-10.5-4.7-19.2-13.6-19.2c-6.9,0-12.8,6.5-12.8,14.6V58.4z"/>
	<path fill="#6F8087" d="M143.7,33.9c3.8-6.2,9.8-9.6,17.5-9.6c12.4,0,21.8,11,21.8,28.2c0,20.3-11.7,29.4-23.4,29.4
		c-6.6,0-12-3.1-14.7-7.6h-0.2v28.9h-11.6V43.3c0-7.2-0.2-12.9-0.4-17.8h10.2l0.6,8.4H143.7z M144.7,58.4c0,9.9,6.8,14.1,12.5,14.1
		c9,0,13.9-8.3,13.9-19.8c0-10.5-4.7-19.2-13.6-19.2c-6.9,0-12.8,6.5-12.8,14.6V58.4z"/>
	<g>
		<path fill="#404D5C" d="M230.9,15.9c-2.5-1.4-7.3-3.4-13.6-3.4c-9.1,0-12.9,5.3-12.9,10.2c0,6.5,4.3,9.7,14,13.9
			c12.3,5.4,18.2,12.1,18.2,22.7c0,12.8-9.5,22.5-26.8,22.5c-7.2,0-14.8-2.1-18.5-4.6l2.6-9.7C198,70,204.3,72,210.6,72
			c9.1,0,14.2-4.7,14.2-11.6c0-6.5-3.9-10.5-13-14.3c-11.4-4.6-19.1-11.5-19.1-22c0-12.1,9.7-21.3,25-21.3c7.3,0,12.8,1.8,16.1,3.5
			L230.9,15.9z"/>
		<path fill="#404D5C" d="M254.3,17.7c-4,0-6.7-3-6.7-6.7c0-3.9,2.8-6.8,6.8-6.8c4,0,6.7,2.9,6.7,6.8
			C261.1,14.7,258.5,17.7,254.3,17.7z M260.1,80.7h-11.6V25.4h11.6V80.7z"/>
		<path fill="#404D5C" d="M320.4,25.5c-0.3,3.9-0.5,8.5-0.5,15.9v31.5c0,11-0.9,31.4-27.1,31.4c-6.4,0-13.1-1.4-17.4-4l2.6-9
			c3.4,2,8.7,3.9,14.9,3.9c9,0,15.4-5,15.4-17.5v-5.3h-0.2c-2.8,4.7-8.2,8.1-15.3,8.1c-13,0-22-11.5-22-27
			c0-18.7,11.3-29.2,23.4-29.2c8.2,0,12.8,4.2,15.1,8.6h0.2l0.5-7.4H320.4z M308.2,46.8c0-7.3-4.8-13.3-11.9-13.3
			c-8,0-13.6,7.6-13.6,19.4c0,10.8,4.9,18.5,13.5,18.5c6,0,12-4.6,12-13.8V46.8z"/>
		<path fill="#404D5C" d="M379.5,80.7h-11.6V48.3c0-7.8-2.6-14.4-10.5-14.4c-5.7,0-11.8,4.7-11.8,13.5v33.3h-11.6V41
			c0-6.1-0.2-10.8-0.4-15.5h10.1l0.6,8.2h0.3c2.6-4.7,8.4-9.4,16.7-9.4c8.6,0,18.2,5.6,18.2,22.7V80.7z"/>
		<path fill="#404D5C" d="M432,67.6c0,4.7,0.1,9.5,0.8,13.1h-10.5l-0.8-6.4h-0.3c-3.1,4.3-8.5,7.5-15.4,7.5
			c-10.3,0-16.2-7.6-16.2-16.1c0-13.7,11.9-20.6,30.9-20.6c0-4.1,0-12.3-11.1-12.3c-4.9,0-9.9,1.5-13.4,3.8l-2.4-7.7
			c3.9-2.5,10.4-4.6,17.8-4.6c16.2,0,20.8,10.7,20.8,22.5V67.6z M420.7,52.9c-9.1,0-19.6,1.7-19.6,11.5c0,6.1,3.8,8.8,8.1,8.8
			c6.3,0,11.5-4.8,11.5-11.2V52.9z"/>
		<path fill="#404D5C" d="M457.8,80.7h-11.1V7.4l11.1-6.3V80.7z"/>
	</g>
</g>
</svg>
